<svg width="1024" height="1024" viewBox="0 0 1024 1024" fill="none" xmlns="http://www.w3.org/2000/svg">
  <defs>
    <linearGradient id="bg" x1="160" y1="112" x2="848" y2="912" gradientUnits="userSpaceOnUse">
      <stop offset="0" stop-color="#FFFDF9"/>
      <stop offset="0.55" stop-color="#F7EEDF"/>
      <stop offset="1" stop-color="#EAD7BA"/>
    </linearGradient>
    <linearGradient id="gold" x1="286" y1="230" x2="734" y2="790" gradientUnits="userSpaceOnUse">
      <stop offset="0" stop-color="#E3C18C"/>
      <stop offset="0.48" stop-color="#B98645"/>
      <stop offset="1" stop-color="#8B5E2D"/>
    </linearGradient>
    <linearGradient id="goldSoft" x1="352" y1="312" x2="694" y2="712" gradientUnits="userSpaceOnUse">
      <stop offset="0" stop-color="#F7E1BA"/>
      <stop offset="1" stop-color="#BA8646"/>
    </linearGradient>
    <radialGradient id="glow" cx="0" cy="0" r="1" gradientUnits="userSpaceOnUse" gradientTransform="translate(378 278) rotate(45) scale(468 468)">
      <stop stop-color="white" stop-opacity="0.9"/>
      <stop offset="1" stop-color="white" stop-opacity="0"/>
    </radialGradient>
    <filter id="shadow" x="72" y="64" width="880" height="896" filterUnits="userSpaceOnUse" color-interpolation-filters="sRGB">
      <feFlood flood-opacity="0" result="BackgroundImageFix"/>
      <feColorMatrix in="SourceAlpha" type="matrix" values="0 0 0 0 0 0 0 0 0 0 0 0 0 0 0 0 0 0 127 0" result="hardAlpha"/>
      <feOffset dy="20"/>
      <feGaussianBlur stdDeviation="28"/>
      <feColorMatrix type="matrix" values="0 0 0 0 0.360784 0 0 0 0 0.254902 0 0 0 0 0.129412 0 0 0 0.16 0"/>
      <feBlend mode="normal" in2="BackgroundImageFix" result="effect1_dropShadow_0_1"/>
      <feBlend mode="normal" in="SourceGraphic" in2="effect1_dropShadow_0_1" result="shape"/>
    </filter>
  </defs>

  <g filter="url(#shadow)">
    <rect x="116" y="108" width="792" height="792" rx="214" fill="url(#bg)"/>
    <rect x="128" y="120" width="768" height="768" rx="202" stroke="url(#gold)" stroke-width="8" stroke-opacity="0.42"/>
    <rect x="174" y="176" width="676" height="676" rx="176" fill="url(#glow)" fill-opacity="0.82"/>

    <circle cx="512" cy="512" r="278" stroke="url(#gold)" stroke-width="30"/>
    <circle cx="512" cy="512" r="230" stroke="url(#goldSoft)" stroke-width="3" stroke-opacity="0.42"/>

    <path d="M644.278 311.474C697.528 348.105 732.467 409.423 732.467 478.84C732.467 591.075 641.485 682.056 529.251 682.056C459.75 682.056 398.39 647.027 361.772 593.687"
      stroke="url(#gold)" stroke-width="34" stroke-linecap="round"/>
    <path d="M380.047 711.513C326.439 674.981 291 613.561 291 543.851C291 431.616 381.981 340.635 494.216 340.635C562.942 340.635 623.672 374.866 660.357 427.193"
      stroke="url(#gold)" stroke-width="34" stroke-linecap="round"/>

    <path d="M510.661 340.194C572.678 340.194 622.95 390.465 622.95 452.483C622.95 491.318 605.98 518.841 573.122 550.955C531.919 591.212 510.661 616.124 510.661 668.359"
      stroke="url(#gold)" stroke-width="34" stroke-linecap="round" stroke-linejoin="round"/>
    <path d="M512.06 684.215C450.765 684.215 401.073 634.523 401.073 573.228C401.073 533.963 418.489 505.756 451.744 473.627C492.495 434.248 512.06 409.519 512.06 355.804"
      stroke="url(#gold)" stroke-width="34" stroke-linecap="round" stroke-linejoin="round"/>

    <circle cx="599" cy="419" r="32" fill="url(#gold)"/>
    <circle cx="427" cy="603" r="38" fill="#FFF7EA" stroke="url(#gold)" stroke-width="18"/>

    <path d="M327 778C390.585 821.548 466.55 846.933 548.412 846.933C637.757 846.933 720.071 816.666 786.8 764.8"
      stroke="url(#goldSoft)" stroke-width="12" stroke-linecap="round" stroke-opacity="0.62"/>
  </g>
</svg>
